<svg width="46" height="40" viewBox="0 0 46 40" fill="none" xmlns="http://www.w3.org/2000/svg">
<path d="M41.8254 12.385C41.6491 12.1635 41.4137 11.9824 41.1393 11.8573C40.8649 11.7322 40.5597 11.6668 40.2499 11.6667H14.0548L11.843 7.05001C11.553 6.44204 11.0619 5.92265 10.432 5.55769C9.8021 5.19273 9.06175 4.99863 8.30484 5.00001H3.83325V8.33334H8.30484L17.3975 27.3083C17.5431 27.6119 17.7888 27.8713 18.1036 28.0537C18.4185 28.2361 18.7883 28.3334 19.1666 28.3333H34.4999C35.2992 28.3333 36.0141 27.9017 36.2958 27.2533L42.0458 13.92C42.1545 13.6677 42.1912 13.3963 42.1528 13.1289C42.1144 12.8616 42.0021 12.6063 41.8254 12.385V12.385Z" fill="#4E4D4D"/>
<path d="M20.125 35C21.7128 35 23 33.8807 23 32.5C23 31.1193 21.7128 30 20.125 30C18.5372 30 17.25 31.1193 17.25 32.5C17.25 33.8807 18.5372 35 20.125 35Z" fill="#4E4D4D"/>
<path d="M33.5417 35C35.1296 35 36.4167 33.8807 36.4167 32.5C36.4167 31.1193 35.1296 30 33.5417 30C31.9539 30 30.6667 31.1193 30.6667 32.5C30.6667 33.8807 31.9539 35 33.5417 35Z" fill="#4E4D4D"/>
</svg>
