<svg width="25" height="23" viewBox="0 0 25 23" fill="none" xmlns="http://www.w3.org/2000/svg">
<path d="M22.7312 7.12138C22.6354 6.99399 22.5075 6.88987 22.3584 6.81793C22.2092 6.746 22.0434 6.70839 21.875 6.70834H7.63854L6.43645 4.05375C6.27884 3.70418 6.01194 3.40553 5.6696 3.19567C5.32727 2.98582 4.92491 2.87421 4.51354 2.875H2.08333V4.79167H4.51354L9.4552 15.7023C9.53435 15.8769 9.66789 16.026 9.83898 16.1309C10.0101 16.2357 10.2111 16.2917 10.4167 16.2917H18.75C19.1844 16.2917 19.5729 16.0435 19.726 15.6707L22.851 8.004C22.9101 7.85893 22.93 7.70285 22.9092 7.54913C22.8883 7.39541 22.8273 7.24864 22.7312 7.12138V7.12138Z" fill="#C21010"/>
<path d="M10.9375 20.125C11.8004 20.125 12.5 19.4814 12.5 18.6875C12.5 17.8936 11.8004 17.25 10.9375 17.25C10.0746 17.25 9.375 17.8936 9.375 18.6875C9.375 19.4814 10.0746 20.125 10.9375 20.125Z" fill="#C21010"/>
<path d="M18.2292 20.125C19.0921 20.125 19.7917 19.4814 19.7917 18.6875C19.7917 17.8936 19.0921 17.25 18.2292 17.25C17.3662 17.25 16.6667 17.8936 16.6667 18.6875C16.6667 19.4814 17.3662 20.125 18.2292 20.125Z" fill="#C21010"/>
</svg>
