<svg width="52" height="52" viewBox="0 0 52 52" fill="none" xmlns="http://www.w3.org/2000/svg">
<g filter="url(#filter0_d_76_177)">
<path d="M5.03747 1.0375C5.32775 0.746479 5.6726 0.515586 6.05226 0.358045C6.43192 0.200505 6.83892 0.119415 7.24997 0.119415C7.66102 0.119415 8.06802 0.200505 8.44768 0.358045C8.82734 0.515586 9.17218 0.746479 9.46247 1.0375L26 17.5813L42.5375 1.0375C42.828 0.74695 43.173 0.516473 43.5526 0.359229C43.9322 0.201984 44.3391 0.121051 44.75 0.121051C45.1609 0.121051 45.5677 0.201984 45.9474 0.359229C46.327 0.516473 46.6719 0.74695 46.9625 1.0375C47.253 1.32805 47.4835 1.67298 47.6407 2.0526C47.798 2.43222 47.8789 2.8391 47.8789 3.25C47.8789 3.6609 47.798 4.06778 47.6407 4.4474C47.4835 4.82702 47.253 5.17195 46.9625 5.4625L30.4187 22L46.9625 38.5375C47.253 38.828 47.4835 39.173 47.6407 39.5526C47.798 39.9322 47.8789 40.3391 47.8789 40.75C47.8789 41.1609 47.798 41.5678 47.6407 41.9474C47.4835 42.327 47.253 42.672 46.9625 42.9625C46.6719 43.2531 46.327 43.4835 45.9474 43.6408C45.5677 43.798 45.1609 43.8789 44.75 43.8789C44.3391 43.8789 43.9322 43.798 43.5526 43.6408C43.173 43.4835 42.828 43.2531 42.5375 42.9625L26 26.4187L9.46247 42.9625C9.17192 43.2531 8.82699 43.4835 8.44737 43.6408C8.06775 43.798 7.66087 43.8789 7.24997 43.8789C6.83907 43.8789 6.43219 43.798 6.05257 43.6408C5.67295 43.4835 5.32802 43.2531 5.03747 42.9625C4.74692 42.672 4.51644 42.327 4.3592 41.9474C4.20195 41.5678 4.12102 41.1609 4.12102 40.75C4.12102 40.3391 4.20195 39.9322 4.3592 39.5526C4.51644 39.173 4.74692 38.828 5.03747 38.5375L21.5812 22L5.03747 5.4625C4.74645 5.17222 4.51556 4.82737 4.35801 4.44771C4.20047 4.06805 4.11938 3.66105 4.11938 3.25C4.11938 2.83895 4.20047 2.43195 4.35801 2.05229C4.51556 1.67263 4.74645 1.32779 5.03747 1.0375Z" fill="black"/>
</g>
<defs>
<filter id="filter0_d_76_177" x="0.119385" y="0.119415" width="51.7595" height="51.7595" filterUnits="userSpaceOnUse" color-interpolation-filters="sRGB">
<feFlood flood-opacity="0" result="BackgroundImageFix"/>
<feColorMatrix in="SourceAlpha" type="matrix" values="0 0 0 0 0 0 0 0 0 0 0 0 0 0 0 0 0 0 127 0" result="hardAlpha"/>
<feOffset dy="4"/>
<feGaussianBlur stdDeviation="2"/>
<feComposite in2="hardAlpha" operator="out"/>
<feColorMatrix type="matrix" values="0 0 0 0 0 0 0 0 0 0 0 0 0 0 0 0 0 0 0.25 0"/>
<feBlend mode="normal" in2="BackgroundImageFix" result="effect1_dropShadow_76_177"/>
<feBlend mode="normal" in="SourceGraphic" in2="effect1_dropShadow_76_177" result="shape"/>
</filter>
</defs>
</svg>
