<svg width="107" height="24" viewBox="0 0 107 24" fill="none" xmlns="http://www.w3.org/2000/svg">
<path fill-rule="evenodd" clip-rule="evenodd" d="M7.05273 2.05818C8.33236 2.01058 8.74036 2 12 2C15.2596 2 15.6676 2.01146 16.9462 2.05818C18.2247 2.10489 19.0975 2.26973 19.8611 2.50861C20.6607 2.75278 21.3862 3.13445 21.9862 3.62807C22.5971 4.112 23.0684 4.6973 23.3695 5.3443C23.6662 5.96133 23.8691 6.6665 23.928 7.69782C23.9869 8.73355 24 9.06322 24 11.6962C24 14.33 23.9858 14.6597 23.928 15.6936C23.8702 16.725 23.6662 17.4301 23.3695 18.0472C23.0684 18.6942 22.5963 19.2805 21.9862 19.7651C21.3862 20.2588 20.6607 20.6396 19.8611 20.8828C19.0975 21.1226 18.2247 21.2866 16.9484 21.3342C15.6676 21.3818 15.2596 21.3923 12 21.3923C8.74036 21.3923 8.33236 21.3809 7.05273 21.3342C5.77636 21.2874 4.90364 21.1226 4.14 20.8828C3.33919 20.6395 2.61362 20.2581 2.01382 19.7651C1.40332 19.2809 0.930889 18.6949 0.629455 18.048C0.333818 17.431 0.130909 16.7258 0.072 15.6945C0.0130909 14.6588 0 14.3291 0 11.6962C0 9.06234 0.0141818 8.73267 0.072 7.69958C0.129818 6.6665 0.333818 5.96133 0.629455 5.3443C0.931334 4.69737 1.40413 4.1114 2.01491 3.62719C2.61386 3.13401 3.3387 2.75228 4.13891 2.50861C4.90255 2.26973 5.77527 2.10578 7.05164 2.05818H7.05273ZM16.8491 3.80349C15.5836 3.75677 15.204 3.74707 12 3.74707C8.796 3.74707 8.41636 3.75677 7.15091 3.80349C5.98036 3.84668 5.34545 4.00446 4.92218 4.13756C4.36255 4.31386 3.96218 4.52277 3.54218 4.86213C3.14405 5.1751 2.83765 5.5561 2.64545 5.97719C2.48073 6.3192 2.28545 6.83222 2.232 7.77803C2.17418 8.80054 2.16218 9.10729 2.16218 11.6962C2.16218 14.285 2.17418 14.5918 2.232 15.6143C2.28545 16.5601 2.48073 17.0731 2.64545 17.4151C2.83745 17.8356 3.144 18.2173 3.54218 18.5302C3.92945 18.8519 4.40182 19.0996 4.92218 19.2548C5.34545 19.3879 5.98036 19.5457 7.15091 19.5888C8.41636 19.6356 8.79491 19.6453 12 19.6453C15.2051 19.6453 15.5836 19.6356 16.8491 19.5888C18.0196 19.5457 18.6545 19.3879 19.0778 19.2548C19.6375 19.0785 20.0378 18.8696 20.4578 18.5302C20.856 18.2173 21.1625 17.8356 21.3545 17.4151C21.5193 17.0731 21.7145 16.5601 21.768 15.6143C21.8258 14.5918 21.8378 14.285 21.8378 11.6962C21.8378 9.10729 21.8258 8.80054 21.768 7.77803C21.7145 6.83222 21.5193 6.3192 21.3545 5.97719C21.1364 5.525 20.8778 5.2015 20.4578 4.86213C20.0705 4.54046 19.5989 4.29289 19.0778 4.13756C18.6545 4.00446 18.0196 3.84668 16.8491 3.80349V3.80349ZM10.4673 14.6852C11.3233 14.9731 12.2764 15.012 13.1639 14.7952C14.0514 14.5783 14.8182 14.1193 15.3334 13.4963C15.8485 12.8734 16.0801 12.1253 15.9884 11.3798C15.8968 10.6343 15.4876 9.93761 14.8309 9.40875C14.4123 9.07069 13.9061 8.81183 13.3487 8.65082C12.7914 8.4898 12.1968 8.43064 11.6078 8.47758C11.0188 8.52453 10.45 8.67641 9.94233 8.9223C9.43468 9.16819 9.00081 9.50196 8.67197 9.8996C8.34312 10.2972 8.12748 10.7488 8.04056 11.2219C7.95365 11.695 7.99762 12.1777 8.16932 12.6354C8.34101 13.0931 8.63616 13.5143 9.03351 13.8687C9.43087 14.2232 9.92054 14.502 10.4673 14.6852ZM7.63855 8.17205C8.2113 7.70926 8.89126 7.34215 9.6396 7.09169C10.3879 6.84123 11.19 6.71231 12 6.71231C12.81 6.71231 13.6121 6.84123 14.3604 7.09169C15.1087 7.34215 15.7887 7.70926 16.3615 8.17205C16.9342 8.63484 17.3885 9.18426 17.6985 9.78893C18.0085 10.3936 18.168 11.0417 18.168 11.6962C18.168 12.3507 18.0085 12.9987 17.6985 13.6034C17.3885 14.2081 16.9342 14.7575 16.3615 15.2203C15.2047 16.1549 13.6359 16.68 12 16.68C10.3641 16.68 8.79528 16.1549 7.63855 15.2203C6.48182 14.2856 5.83197 13.018 5.83197 11.6962C5.83197 10.3744 6.48182 9.1067 7.63855 8.17205V8.17205ZM19.536 7.45453C19.6779 7.34635 19.7916 7.21626 19.8702 7.07195C19.9487 6.92765 19.9907 6.77207 19.9935 6.61443C19.9964 6.45679 19.9601 6.30029 19.8867 6.1542C19.8134 6.00811 19.7045 5.87539 19.5665 5.76391C19.4285 5.65243 19.2643 5.56445 19.0835 5.50518C18.9027 5.44591 18.709 5.41656 18.5139 5.41885C18.3188 5.42115 18.1263 5.45506 17.9477 5.51856C17.7691 5.58206 17.6081 5.67387 17.4742 5.78856C17.2138 6.01159 17.0712 6.30785 17.0768 6.61443C17.0823 6.92102 17.2355 7.21379 17.5038 7.4306C17.7721 7.64741 18.1345 7.77118 18.5139 7.77565C18.8933 7.78012 19.26 7.66493 19.536 7.45453V7.45453Z" fill="white"/>
<path fill-rule="evenodd" clip-rule="evenodd" d="M38 12.067C38 18.033 42.8746 22.994 49.25 24V15.333H45.875V12H49.25V9.333C49.25 6.333 51.4246 4.667 54.5004 4.667C55.4746 4.667 56.5254 4.8 57.4996 4.933V8H55.775C54.1246 8 53.75 8.733 53.75 9.667V12H57.35L56.7504 15.333H53.75V24C60.1254 22.994 65 18.034 65 12.067C65 5.43 58.925 0 51.5 0C44.075 0 38 5.43 38 12.067Z" fill="white"/>
<path d="M106.901 17.4069C106.706 16.9493 106.335 16.7046 105.914 16.5023C105.844 16.467 105.772 16.4348 105.698 16.4056L105.315 16.238C103.999 15.6354 102.972 14.8757 102.26 13.9756C102.057 13.7225 101.881 13.4541 101.735 13.1737C101.675 13.0227 101.679 12.9381 101.721 12.8611C101.764 12.8011 101.822 12.7497 101.89 12.7101C102.116 12.5802 102.349 12.4488 102.506 12.3612C102.79 12.2042 103.012 12.0788 103.156 11.9912C103.696 11.665 104.074 11.3176 104.311 10.931C104.475 10.6636 104.571 10.3687 104.592 10.0664C104.613 9.76416 104.558 9.46155 104.431 9.17917C104.073 8.36666 103.184 7.86225 102.106 7.86225C101.818 7.86174 101.531 7.89476 101.253 7.96041C101.264 7.40465 101.25 6.81717 101.192 6.24026C100.989 4.21052 100.165 3.14731 99.3073 2.29857C98.7576 1.76725 98.1101 1.31773 97.391 0.968056C96.0873 0.326209 94.6103 0 92.9986 0C91.3886 0 89.9186 0.326209 88.6148 0.968056C87.8938 1.31843 87.2463 1.76848 86.6951 2.30159C85.8376 3.15034 85.0151 4.21505 84.8104 6.24328C84.7526 6.82019 84.7404 7.40918 84.7474 7.96192C84.4697 7.89629 84.183 7.86327 83.8951 7.86376C82.8189 7.86376 81.9281 8.36968 81.5711 9.18219C81.4437 9.46458 81.3882 9.76735 81.4085 10.0699C81.4287 10.3724 81.5241 10.6677 81.6884 10.9356C81.9264 11.3222 82.3044 11.6695 82.8434 11.9942C82.9869 12.0818 83.2109 12.2057 83.4926 12.3657L84.0859 12.6995C84.162 12.743 84.2269 12.7995 84.2766 12.8656C84.3221 12.9457 84.3239 13.0318 84.2556 13.1934C84.1109 13.4678 83.9381 13.7306 83.7394 13.9787C83.0429 14.8591 82.0454 15.6052 80.7714 16.2017C80.0976 16.5098 79.3959 16.7152 79.1001 17.4099C78.8761 17.9355 79.0231 18.532 79.5901 19.0334C79.7984 19.2222 80.0399 19.3808 80.3059 19.5016C80.8586 19.7636 81.4462 19.9665 82.0559 20.1057C82.1817 20.1335 82.3012 20.1794 82.4094 20.2416C82.6159 20.3986 82.5879 20.6342 82.8626 20.9786C83.0009 21.1568 83.1776 21.3108 83.3806 21.4316C83.9581 21.7775 84.6074 21.7986 85.2968 21.8213C85.9181 21.8424 86.6233 21.8666 87.4266 22.0931C87.7591 22.1898 88.1073 22.374 88.5081 22.5885C89.4706 23.0989 90.7918 23.7997 92.9986 23.7997C95.2071 23.7997 96.5336 23.0959 97.5065 22.5824C97.9038 22.371 98.2485 22.1898 98.5723 22.0977C99.3773 21.8681 100.083 21.8439 100.704 21.8243C101.392 21.8017 102.041 21.779 102.62 21.4347C102.861 21.2891 103.062 21.0993 103.208 20.8789C103.408 20.5889 103.401 20.3851 103.588 20.2446C103.689 20.185 103.802 20.1406 103.92 20.1132C104.539 19.9735 105.135 19.7686 105.695 19.5031C105.975 19.3717 106.23 19.201 106.446 18.9956L106.453 18.9881C106.985 18.4973 107.118 17.9173 106.901 17.4069ZM104.939 18.316C103.742 18.8869 102.946 18.825 102.326 19.1693C101.801 19.4608 102.113 20.0906 101.731 20.3171C101.26 20.598 99.8743 20.299 98.0823 20.8094C96.6036 21.2308 95.6603 22.4435 93.0021 22.4435C90.3438 22.4435 89.4233 21.2338 87.9201 20.8064C86.1316 20.296 84.7421 20.595 84.2731 20.3156C83.8916 20.0891 84.2014 19.4578 83.6764 19.1663C83.0569 18.822 82.2606 18.8839 81.0654 18.316C80.3024 17.9536 80.7346 17.7271 80.9884 17.6213C85.3248 15.8106 86.0161 13.0151 86.0458 12.8067C86.0843 12.556 86.1246 12.3582 85.8043 12.103C85.4946 11.8553 84.1209 11.1213 83.7394 10.8918C83.1094 10.5112 82.8294 10.1321 83.0359 9.66546C83.1794 9.34227 83.5276 9.21994 83.8934 9.21994C84.0093 9.22039 84.1249 9.23152 84.2381 9.25317C84.9311 9.38305 85.6031 9.68358 85.9916 9.76362C86.0388 9.7742 86.0861 9.77873 86.1351 9.78024C86.3416 9.78024 86.4151 9.68962 86.4011 9.48574C86.3556 8.83181 86.2488 7.55718 86.3678 6.36561C86.5323 4.72852 87.1448 3.91602 87.8711 3.19866C88.2211 2.85282 89.8608 1.35618 92.9986 1.35618C96.1346 1.35618 97.7795 2.84678 98.1278 3.19111C98.8558 3.90847 99.4683 4.72097 99.631 6.35957C99.75 7.54963 99.6468 8.82426 99.5978 9.47819C99.5803 9.69264 99.6573 9.77269 99.8638 9.77269C99.9121 9.77256 99.9603 9.76749 100.007 9.75758C100.396 9.67603 101.07 9.3755 101.761 9.24713C101.874 9.22477 101.989 9.21312 102.106 9.21239C102.473 9.21239 102.821 9.33623 102.963 9.65791C103.168 10.1246 102.893 10.5036 102.261 10.8842C101.88 11.1138 100.506 11.8477 100.196 12.0954C99.8743 12.3506 99.9163 12.5485 99.953 12.7992C99.9845 13.0106 100.676 15.806 105.011 17.6153C105.268 17.7255 105.7 17.9506 104.939 18.316Z" fill="white"/>
</svg>
