<svg width="100" height="100" viewBox="0 0 100 100" fill="none" xmlns="http://www.w3.org/2000/svg">
<g filter="url(#filter0_d_101_165)">
<path d="M20.8333 83.3333C20.8333 85.5435 21.7113 87.6631 23.2741 89.2259C24.8369 90.7887 26.9565 91.6667 29.1667 91.6667H70.8333C73.0435 91.6667 75.1631 90.7887 76.7259 89.2259C78.2887 87.6631 79.1667 85.5435 79.1667 83.3333V33.3333H87.5V25H70.8333V16.6667C70.8333 14.4565 69.9554 12.3369 68.3926 10.7741C66.8297 9.21131 64.7101 8.33334 62.5 8.33334H37.5C35.2899 8.33334 33.1702 9.21131 31.6074 10.7741C30.0446 12.3369 29.1667 14.4565 29.1667 16.6667V25H12.5V33.3333H20.8333V83.3333ZM37.5 16.6667H62.5V25H37.5V16.6667ZM33.3333 33.3333H70.8333V83.3333H29.1667V33.3333H33.3333Z" fill="black"/>
<path d="M37.5 41.6667H45.8333V75H37.5V41.6667ZM54.1667 41.6667H62.5V75H54.1667V41.6667Z" fill="black"/>
</g>
<defs>
<filter id="filter0_d_101_165" x="-4" y="0" width="108" height="108" filterUnits="userSpaceOnUse" color-interpolation-filters="sRGB">
<feFlood flood-opacity="0" result="BackgroundImageFix"/>
<feColorMatrix in="SourceAlpha" type="matrix" values="0 0 0 0 0 0 0 0 0 0 0 0 0 0 0 0 0 0 127 0" result="hardAlpha"/>
<feOffset dy="4"/>
<feGaussianBlur stdDeviation="2"/>
<feComposite in2="hardAlpha" operator="out"/>
<feColorMatrix type="matrix" values="0 0 0 0 0 0 0 0 0 0 0 0 0 0 0 0 0 0 0.25 0"/>
<feBlend mode="normal" in2="BackgroundImageFix" result="effect1_dropShadow_101_165"/>
<feBlend mode="normal" in="SourceGraphic" in2="effect1_dropShadow_101_165" result="shape"/>
</filter>
</defs>
</svg>
