<svg width="50" height="43" viewBox="0 0 50 43" fill="none" xmlns="http://www.w3.org/2000/svg">
<path d="M37.6943 40.6111H12.3054C11.771 40.6003 11.2443 40.499 10.7553 40.313C10.2664 40.127 9.82492 39.86 9.45604 39.5272C9.08715 39.1945 8.79813 38.8024 8.60547 38.3736C8.41281 37.9447 8.3203 37.4874 8.33322 37.0278V13.4136H11.111V37.0278C11.0977 37.1737 11.1182 37.3205 11.1711 37.4597C11.224 37.5988 11.3084 37.7276 11.4194 37.8386C11.5304 37.9496 11.6658 38.0406 11.8179 38.1065C11.97 38.1723 12.1356 38.2117 12.3054 38.2222H37.6943C37.8641 38.2117 38.0298 38.1723 38.1819 38.1065C38.3339 38.0406 38.4693 37.9496 38.5804 37.8386C38.6914 37.7276 38.7757 37.5988 38.8287 37.4597C38.8816 37.3205 38.902 37.1737 38.8888 37.0278V13.4136H41.6665V37.0278C41.6795 37.4874 41.587 37.9447 41.3943 38.3736C41.2016 38.8024 40.9126 39.1945 40.5437 39.5272C40.1748 39.86 39.7333 40.127 39.2444 40.313C38.7555 40.499 38.2288 40.6003 37.6943 40.6111Z" fill="#C21010"/>
<path d="M42.7501 10.75H6.94455C6.5762 10.75 6.22293 10.6242 5.96246 10.4002C5.70199 10.1762 5.55566 9.87234 5.55566 9.55556C5.55566 9.23877 5.70199 8.93496 5.96246 8.71096C6.22293 8.48695 6.5762 8.36111 6.94455 8.36111H42.7501C43.1185 8.36111 43.4717 8.48695 43.7322 8.71096C43.9927 8.93496 44.139 9.23877 44.139 9.55556C44.139 9.87234 43.9927 10.1762 43.7322 10.4002C43.4717 10.6242 43.1185 10.75 42.7501 10.75Z" fill="#C21010"/>
<path d="M29.1665 15.5278H31.9443V33.4444H29.1665V15.5278Z" fill="#C21010"/>
<path d="M18.0557 15.5278H20.8334V33.4444H18.0557V15.5278Z" fill="#C21010"/>
<path d="M31.9446 6.99944H29.3057V4.77778H20.6946V6.99944H18.0557V4.77778C18.0548 4.16437 18.3283 3.57417 18.8196 3.12944C19.3108 2.68472 19.9822 2.41956 20.6946 2.38889H29.3057C30.018 2.41956 30.6894 2.68472 31.1807 3.12944C31.6719 3.57417 31.9454 4.16437 31.9446 4.77778V6.99944Z" fill="#C21010"/>
</svg>
